<svg height="512pt" viewBox="0 0 512 512" width="512pt" xmlns="http://www.w3.org/2000/svg"><path d="m27.589844 306.226562c-10.863282 33.472657-17.269532 68.230469-19.054688 103.375 0 85.332032 8.53125 93.863282 42.664063 93.863282 81.921875 0 59.871093-84.476563 98.296875-105.980469l63.640625-4.949219h85.726562l63.640625 4.949219c38.425782 21.503906 16.375 105.980469 98.296875 105.980469 34.132813 0 42.664063-8.53125 42.664063-93.863282-1.785156-35.144531-8.191406-69.902343-19.054688-103.375l-31.90625-74.972656c-12.917968-21.0625-27.542968-34.988281-42.902344-34.988281-34.136718 0-25.601562 17.066406-93.867187 17.066406h-119.46875c-68.265625 0-59.730469-17.066406-93.867187-17.066406-15.359376 0-29.984376 13.925781-42.902344 34.988281zm0 0" fill="#5068c1"/><g fill="#354aa3"><path d="m503.464844 409.601562c0 85.332032-8.53125 93.863282-42.664063 93.863282-4.082031.019531-8.15625-.238282-12.203125-.765625 23.039063-3.414063 29.269532-20.308594 29.269532-93.097657-1.804688-35.132812-8.203126-69.871093-19.03125-103.339843l-31.914063-75.007813c-10.324219-16.726562-21.589844-28.929687-33.535156-33.195312 5.308593-1.28125 10.753906-1.882813 16.214843-1.792969 15.359376 0 29.949219 13.910156 42.921876 34.988281l31.914062 75.007813c10.828125 33.46875 17.226562 68.207031 19.027344 103.339843zm0 0"/><path d="m221.867188 366.933594c0 23.5625-19.101563 42.667968-42.667969 42.667968-23.5625 0-42.664063-19.105468-42.664063-42.667968s19.101563-42.667969 42.664063-42.667969c23.566406 0 42.667969 19.105469 42.667969 42.667969zm0 0"/><path d="m375.464844 366.933594c0 23.5625-19.101563 42.667968-42.664063 42.667968-23.566406 0-42.667969-19.105468-42.667969-42.667968s19.101563-42.667969 42.667969-42.667969c23.5625 0 42.664063 19.105469 42.664063 42.667969zm0 0"/><path d="m162.132812 290.132812c.101563 36.117188-27.945312 66.0625-63.992187 68.324219-36.042969 2.261719-67.613281-23.945312-72.027344-59.789062-.683593-5.667969-.683593-11.398438 0-17.066407 4.414063-35.847656 35.984375-62.050781 72.027344-59.792968 36.046875 2.261718 64.09375 32.207031 63.992187 68.324218zm0 0"/><path d="m486.398438 290.132812c0 37.703126-30.5625 68.265626-68.265626 68.265626-37.703124 0-68.265624-30.5625-68.265624-68.265626 0-37.703124 30.5625-68.265624 68.265624-68.265624 37.703126 0 68.265626 30.5625 68.265626 68.265624zm0 0"/></g><path d="m392.535156 290.132812c0 11.78125-9.554687 21.332032-21.335937 21.332032s-21.332031-9.550782-21.332031-21.332032 9.550781-21.332031 21.332031-21.332031 21.335937 9.550781 21.335937 21.332031zm0 0" fill="#ef3a76"/><path d="m439.464844 243.199219c0 11.78125-9.550782 21.335937-21.332032 21.335937s-21.332031-9.554687-21.332031-21.335937 9.550781-21.332031 21.332031-21.332031 21.332032 9.550781 21.332032 21.332031zm0 0" fill="#9aca5c"/><path d="m486.398438 290.132812c0 11.78125-9.550782 21.332032-21.332032 21.332032s-21.332031-9.550782-21.332031-21.332032 9.550781-21.332031 21.332031-21.332031 21.332032 9.550781 21.332032 21.332031zm0 0" fill="#f85b44"/><path d="m439.464844 337.066406c0 11.78125-9.550782 21.332032-21.332032 21.332032s-21.332031-9.550782-21.332031-21.332032 9.550781-21.332031 21.332031-21.332031 21.332032 9.550781 21.332032 21.332031zm0 0" fill="#25a8f5"/><path d="m196.265625 213.332031h119.46875v59.734375c0 9.425782-7.640625 17.066406-17.066406 17.066406h-85.335938c-9.425781 0-17.066406-7.640624-17.066406-17.066406zm0 0" fill="#25a8f5"/><path d="m179.199219 418.132812c-28.277344 0-51.199219-22.921874-51.199219-51.199218s22.921875-51.199219 51.199219-51.199219c28.277343 0 51.199219 22.921875 51.199219 51.199219-.027344 28.265625-22.933594 51.171875-51.199219 51.199218zm0-85.332031c-18.851563 0-34.132813 15.28125-34.132813 34.132813 0 18.851562 15.28125 34.132812 34.132813 34.132812 18.851562 0 34.132812-15.28125 34.132812-34.132812 0-18.851563-15.28125-34.132813-34.132812-34.132813zm0 0"/><path d="m187.734375 366.933594c0 4.710937-3.820313 8.53125-8.535156 8.53125-4.710938 0-8.53125-3.820313-8.53125-8.53125 0-4.714844 3.820312-8.535156 8.53125-8.535156 4.714843 0 8.535156 3.820312 8.535156 8.535156zm0 0"/><path d="m341.332031 366.933594c0 4.710937-3.820312 8.53125-8.53125 8.53125-4.714843 0-8.535156-3.820313-8.535156-8.53125 0-4.714844 3.820313-8.535156 8.535156-8.535156 4.710938 0 8.53125 3.820312 8.53125 8.535156zm0 0"/><path d="m93.867188 366.933594c-42.414063 0-76.800782-34.386719-76.800782-76.800782 0-42.414062 34.386719-76.800781 76.800782-76.800781 42.414062 0 76.800781 34.386719 76.800781 76.800781-.054688 42.394532-34.40625 76.75-76.800781 76.800782zm0-136.535156c-32.992188 0-59.734376 26.746093-59.734376 59.734374 0 32.992188 26.742188 59.734376 59.734376 59.734376 32.988281 0 59.734374-26.742188 59.734374-59.734376-.039062-32.972656-26.761718-59.695312-59.734374-59.734374zm0 0"/><path d="m418.132812 366.933594c-42.414062 0-76.800781-34.386719-76.800781-76.800782 0-42.414062 34.386719-76.800781 76.800781-76.800781 42.414063 0 76.800782 34.386719 76.800782 76.800781-.050782 42.394532-34.40625 76.75-76.800782 76.800782zm0-136.535156c-32.988281 0-59.734374 26.746093-59.734374 59.734374 0 32.992188 26.746093 59.734376 59.734374 59.734376 32.992188 0 59.734376-26.742188 59.734376-59.734376-.039063-32.972656-26.757813-59.695312-59.734376-59.734374zm0 0"/><path d="m332.800781 418.132812c-28.277343 0-51.199219-22.921874-51.199219-51.199218s22.921876-51.199219 51.199219-51.199219c28.277344 0 51.199219 22.921875 51.199219 51.199219-.027344 28.265625-22.933594 51.171875-51.199219 51.199218zm0-85.332031c-18.851562 0-34.132812 15.28125-34.132812 34.132813 0 18.851562 15.28125 34.132812 34.132812 34.132812 18.851563 0 34.132813-15.28125 34.132813-34.132812 0-18.851563-15.28125-34.132813-34.132813-34.132813zm0 0"/><path d="m460.800781 512c-56.789062 0-69.480469-37.632812-79.675781-67.867188-5.898438-17.492187-10.992188-32.597656-22.785156-39.199218-2.351563-1.316406-3.945313-3.664063-4.296875-6.335938-.351563-2.675781.582031-5.355468 2.515625-7.234375 13.277344-12.730469 14.113281-33.683593 1.890625-47.433593-12.226563-13.75-33.132813-15.375-47.332031-3.675782-14.199219 11.699219-16.609376 32.53125-5.453126 47.160156 1.9375 2.585938 2.25 6.042969.804688 8.933594-1.445312 2.894532-4.398438 4.71875-7.632812 4.71875h-85.691407c-3.230469 0-6.1875-1.824218-7.632812-4.71875-1.445313-2.890625-1.132813-6.347656.808593-8.933594 4.519532-5.875 6.984376-13.070312 7.011719-20.480468.035157-15.523438-10.410156-29.117188-25.417969-33.082032-15.011718-3.960937-30.804687 2.703126-38.4375 16.222657-7.632812 13.519531-5.179687 30.484375 5.964844 41.289062 1.933594 1.878907 2.867188 4.558594 2.515625 7.234375-.351562 2.671875-1.945312 5.019532-4.296875 6.335938-11.792968 6.601562-16.886718 21.707031-22.785156 39.199218-10.195312 30.234376-22.886719 67.867188-79.675781 67.867188-44.824219 0-51.199219-21.820312-51.199219-102.398438 1.816406-35.992187 8.347656-71.585937 19.429688-105.875 1.125-3.675781 4.570312-6.144531 8.414062-6.03125 3.839844.113282 7.132812 2.78125 8.039062 6.519532 6.050782 25.058594 27.484376 43.417968 53.179688 45.546875 25.691406 2.128906 49.855469-12.449219 59.949219-36.175781 10.089843-23.722657 3.839843-51.242188-15.511719-68.277344s-47.445312-19.746094-69.695312-6.726563c-3.378907 1.972657-7.664063 1.398438-10.402344-1.398437-2.738282-2.792969-3.222656-7.09375-1.179688-10.425782 15.898438-25.890624 32.785156-39.023437 50.175782-39.023437 11.179687-.246094 22.257812 2.171875 32.316406 7.046875 10.921875 4.695312 23.324218 10.019531 61.550781 10.019531h119.46875c38.226563 0 50.628906-5.324219 61.550781-10.019531 10.058594-4.875 21.136719-7.292969 32.316406-7.046875 17.390626 0 34.277344 13.132813 50.175782 39.023437 2.042968 3.332032 1.558594 7.632813-1.179688 10.425782-2.738281 2.796875-7.023437 3.371094-10.402344 1.398437-22.242187-12.972656-50.296874-10.234375-69.609374 6.796875-19.3125 17.035156-25.535157 44.527344-15.441407 68.214844 10.09375 23.691406 34.234375 38.246094 59.894531 36.113281 25.664063-2.128906 47.070313-20.464843 53.121094-45.492187.90625-3.738282 4.195313-6.40625 8.039063-6.519532 3.8125-.023437 7.210937 2.410157 8.414062 6.03125 11.066407 34.292969 17.585938 69.886719 19.386719 105.875 0 80.578126-6.375 102.398438-51.199219 102.398438zm-85.898437-115.984375c11.613281 10.699219 17.066406 26.90625 22.402344 42.664063 9.734374 28.945312 18.960937 56.253906 63.496093 56.253906 25.53125 0 34.132813 0 34.132813-85.332032-1.109375-26.347656-5.214844-52.484374-12.230469-77.902343-21.328125 33.128906-64.265625 44.742187-99.386719 26.878906 2.164063 13.097656-.855468 26.523437-8.414062 37.4375zm-345.597656-64.316406c-7.019532 25.417969-11.125 51.554687-12.238282 77.902343 0 85.332032 8.601563 85.332032 34.132813 85.332032 44.535156 0 53.761719-27.308594 63.496093-56.253906 5.316407-15.757813 10.789063-31.964844 22.402344-42.664063-7.558594-10.914063-10.578125-24.339844-8.414062-37.4375-35.121094 17.863281-78.058594 6.25-99.386719-26.878906zm198.101562 52.300781h57.171875c-1.980469-5.472656-2.988281-11.246094-2.976563-17.066406-.003906-15.980469 7.457032-31.046875 20.167969-40.730469 12.714844-9.683594 29.21875-12.878906 44.625-8.636719-9.03125-23.609375-5.863281-50.152344 8.46875-70.976562 14.332031-20.820313 37.992188-33.257813 63.269531-33.257813 3.425782 0 6.847657.234375 10.242188.699219-4.875-5.328125-11.578125-8.625-18.773438-9.230469-8.871093-.238281-17.660156 1.707031-25.601562 5.664063-11.800781 5.078125-26.523438 11.402344-68.265625 11.402344h-119.46875c-41.742187 0-56.464844-6.324219-68.265625-11.402344-7.941406-3.957032-16.730469-5.902344-25.601562-5.664063-7.195313.605469-13.898438 3.902344-18.773438 9.230469 3.394531-.464844 6.816406-.699219 10.242188-.699219 25.277343 0 48.9375 12.4375 63.269531 33.257813 14.332031 20.824218 17.5 47.367187 8.46875 70.976562 15.40625-4.242187 31.910156-1.046875 44.625 8.636719 12.710937 9.683594 20.171875 24.75 20.167969 40.730469.007812 5.820312-1.007813 11.597656-2.992188 17.066406zm0 0"/><path d="m366.933594 315.734375c-14.140625 0-25.601563-11.460937-25.601563-25.601563 0-14.136718 11.460938-25.597656 25.601563-25.597656 14.136718 0 25.601562 11.460938 25.601562 25.597656 0 14.140626-11.464844 25.601563-25.601562 25.601563zm0-34.132813c-4.714844 0-8.535156 3.820313-8.535156 8.53125 0 4.714844 3.820312 8.535157 8.535156 8.535157 4.710937 0 8.53125-3.820313 8.53125-8.535157 0-4.710937-3.820313-8.53125-8.53125-8.53125zm0 0"/><path d="m418.132812 264.535156c-14.136718 0-25.597656-11.464844-25.597656-25.601562 0-14.140625 11.460938-25.601563 25.597656-25.601563 14.140626 0 25.601563 11.460938 25.601563 25.601563 0 14.136718-11.460937 25.601562-25.601563 25.601562zm0-34.136718c-4.710937 0-8.53125 3.820312-8.53125 8.535156 0 4.710937 3.820313 8.53125 8.53125 8.53125 4.714844 0 8.535157-3.820313 8.535157-8.53125 0-4.714844-3.820313-8.535156-8.535157-8.535156zm0 0"/><path d="m469.332031 315.734375c-14.136719 0-25.597656-11.460937-25.597656-25.601563 0-14.136718 11.460937-25.597656 25.597656-25.597656 14.140625 0 25.601563 11.460938 25.601563 25.597656 0 14.140626-11.460938 25.601563-25.601563 25.601563zm0-34.132813c-4.710937 0-8.53125 3.820313-8.53125 8.53125 0 4.714844 3.820313 8.535157 8.53125 8.535157 4.714844 0 8.535157-3.820313 8.535157-8.535157 0-4.710937-3.820313-8.53125-8.535157-8.53125zm0 0"/><path d="m418.132812 366.933594c-14.136718 0-25.597656-11.460938-25.597656-25.601563 0-14.136719 11.460938-25.597656 25.597656-25.597656 14.140626 0 25.601563 11.460937 25.601563 25.597656 0 14.140625-11.460937 25.601563-25.601563 25.601563zm0-34.132813c-4.710937 0-8.53125 3.820313-8.53125 8.53125 0 4.714844 3.820313 8.535157 8.53125 8.535157 4.714844 0 8.535157-3.820313 8.535157-8.535157 0-4.710937-3.820313-8.53125-8.535157-8.53125zm0 0"/><path d="m93.867188 273.066406c-4.714844 0-8.535157-3.820312-8.535157-8.53125v-42.667968c0-4.714844 3.820313-8.535157 8.535157-8.535157 4.710937 0 8.53125 3.820313 8.53125 8.535157v42.667968c0 4.710938-3.820313 8.53125-8.53125 8.53125zm0 0"/><path d="m59.734375 298.667969h-34.132813c-4.714843 0-8.535156-3.820313-8.535156-8.535157 0-4.710937 3.820313-8.53125 8.535156-8.53125h34.132813c4.710937 0 8.53125 3.820313 8.53125 8.53125 0 4.714844-3.820313 8.535157-8.53125 8.535157zm0 0"/><path d="m162.132812 298.667969h-34.132812c-4.710938 0-8.535156-3.820313-8.535156-8.535157 0-4.710937 3.824218-8.53125 8.535156-8.53125h34.132812c4.714844 0 8.535157 3.820313 8.535157 8.53125 0 4.714844-3.820313 8.535157-8.535157 8.535157zm0 0"/><path d="m93.867188 366.933594c-4.714844 0-8.535157-3.820313-8.535157-8.535156v-34.132813c0-4.710937 3.820313-8.53125 8.535157-8.53125 4.710937 0 8.53125 3.820313 8.53125 8.53125v34.132813c0 4.714843-3.820313 8.535156-8.53125 8.535156zm0 0"/><path d="m298.667969 298.667969h-85.335938c-14.136719 0-25.597656-11.460938-25.597656-25.601563v-59.734375c0-4.710937 3.820313-8.53125 8.53125-8.53125h119.46875c4.710937 0 8.53125 3.820313 8.53125 8.53125v59.734375c0 14.140625-11.460937 25.601563-25.597656 25.601563zm-93.867188-76.800781v51.199218c0 4.714844 3.820313 8.535156 8.53125 8.535156h85.335938c4.710937 0 8.53125-3.820312 8.53125-8.535156v-51.199218zm0 0"/><path d="m256 187.734375c-4.710938 0-8.535156-3.820313-8.535156-8.535156v-12.800781c.03125-25.90625 21.027344-46.902344 46.933594-46.933594h8.535156c16.496094 0 29.867187-13.371094 29.867187-29.863282 0-16.496093-13.371093-29.867187-29.867187-29.867187h-8.535156c-25.90625-.027344-46.902344-21.027344-46.933594-46.933594v-4.265625c0-4.714844 3.824218-8.535156 8.535156-8.535156s8.535156 3.820312 8.535156 8.535156v4.265625c0 16.492188 13.371094 29.867188 29.863282 29.867188h8.535156c25.921875 0 46.933594 21.011719 46.933594 46.933593 0 25.917969-21.011719 46.933594-46.933594 46.933594h-8.535156c-16.492188 0-29.863282 13.371094-29.863282 29.863282v12.800781c0 4.714843-3.824218 8.535156-8.535156 8.535156zm0 0"/><path d="m256 221.867188c-4.710938 0-8.535156-3.820313-8.535156-8.535157v-34.132812c0-4.710938 3.824218-8.53125 8.535156-8.53125s8.535156 3.820312 8.535156 8.53125v34.132812c0 4.714844-3.824218 8.535157-8.535156 8.535157zm0 0"/><path d="m93.867188 170.667969c-4.714844 0-8.535157-3.820313-8.535157-8.535157v-17.066406c0-4.710937 3.820313-8.53125 8.535157-8.53125 4.710937 0 8.53125 3.820313 8.53125 8.53125v17.066406c0 4.714844-3.820313 8.535157-8.53125 8.535157zm0 0"/><path d="m59.734375 187.734375c-1.320313 0-2.625-.308594-3.808594-.898437l-17.066406-8.53125c-4.214844-2.105469-5.929687-7.234376-3.820313-11.453126 2.105469-4.21875 7.234376-5.929687 11.449219-3.820312l17.066407 8.53125c3.546874 1.769531 5.410156 5.746094 4.5 9.601562-.910157 3.855469-4.359376 6.578126-8.320313 6.570313zm0 0"/><path d="m418.132812 170.667969c-4.710937 0-8.53125-3.820313-8.53125-8.535157v-17.066406c0-4.710937 3.820313-8.53125 8.53125-8.53125 4.714844 0 8.535157 3.820313 8.535157 8.53125v17.066406c0 4.714844-3.820313 8.535157-8.535157 8.535157zm0 0"/><path d="m452.265625 187.734375c-3.960937.007813-7.410156-2.714844-8.320313-6.570313-.910156-3.855468.953126-7.832031 4.5-9.601562l17.066407-8.53125c4.214843-2.109375 9.34375-.398438 11.449219 3.820312 2.109374 4.21875.394531 9.347657-3.820313 11.453126l-17.066406 8.53125c-1.183594.589843-2.488281.898437-3.808594.898437zm0 0"/></svg>