<svg enable-background="new 0 0 32 32" height="512" viewBox="0 0 32 32" width="512" xmlns="http://www.w3.org/2000/svg"><path d="m26 32h-20c-3.314 0-6-2.686-6-6v-20c0-3.314 2.686-6 6-6h20c3.314 0 6 2.686 6 6v20c0 3.314-2.686 6-6 6z" fill="#e3f8fa"/><g fill="#8ce1eb"><path d="m22 9.833v5.307l-1.333.7v-6.007c0-.367-.3-.667-.667-.667h-8c-.367 0-.667.3-.667.667v6.007l-1.333-.7v-5.307c0-1.1.9-2 2-2h8c1.1 0 2 .9 2 2z"/><path d="m11.333 15.84v.993c0 .367-.3.667-.667.667-.366 0-.666-.3-.666-.667v-1.693z"/><path d="m22 15.14v1.693c0 .367-.3.667-.667.667s-.667-.3-.667-.667v-.993z"/></g><path d="m24 13.96v7.207c0 1.1-.9 2-2 2h-12c-1.1 0-2-.9-2-2v-7.207c0-.733.4-1.407 1.04-1.76l.96-.52v1.52l-.32.173c-.213.113-.347.34-.347.587v.833l.667.347 1.333.7 4.28 2.233c.24.12.533.12.78-.007l4.273-2.227 1.334-.699.667-.347v-.833c0-.247-.133-.473-.347-.587l-.32-.173v-1.52l.96.52c.64.353 1.04 1.027 1.04 1.76z" fill="#26c6da"/></svg>