<?xml version="1.0"?>
<svg xmlns="http://www.w3.org/2000/svg" xmlns:xlink="http://www.w3.org/1999/xlink" xmlns:svgjs="http://svgjs.com/svgjs" version="1.1" width="512" height="512" x="0" y="0" viewBox="0 0 32 32" style="enable-background:new 0 0 512 512" xml:space="preserve" class=""><g><path xmlns="http://www.w3.org/2000/svg" d="m26 32h-20c-3.314 0-6-2.686-6-6v-20c0-3.314 2.686-6 6-6h20c3.314 0 6 2.686 6 6v20c0 3.314-2.686 6-6 6z" fill="#e3f8fa" data-original="#ffe6e2" style="" class=""/><path xmlns="http://www.w3.org/2000/svg" d="m18.727 10.657h1.46v-2.544c-.251-.035-1.118-.113-2.127-.113-2.106 0-3.548 1.325-3.548 3.759v2.241h-2.324v2.844h2.324v7.156l2.849.001v-7.156h2.23l.354-2.844h-2.585v-1.959c.001-.822.222-1.385 1.367-1.385z" fill="#26c6da" data-original="#fc573b" style="" class=""/></g></svg>
