<?xml version="1.0"?>
<svg xmlns="http://www.w3.org/2000/svg" xmlns:xlink="http://www.w3.org/1999/xlink" xmlns:svgjs="http://svgjs.com/svgjs" version="1.1" width="512" height="512" x="0" y="0" viewBox="0 0 32 32" style="enable-background:new 0 0 512 512" xml:space="preserve" class=""><g><path xmlns="http://www.w3.org/2000/svg" d="m26 32h-20c-3.314 0-6-2.686-6-6v-20c0-3.314 2.686-6 6-6h20c3.314 0 6 2.686 6 6v20c0 3.314-2.686 6-6 6z" fill="#e3f8fa" data-original="#ffe6e2" style="" class=""/><path xmlns="http://www.w3.org/2000/svg" d="m23.996 24 .004-.001v-5.868c0-2.871-.618-5.082-3.974-5.082-1.613 0-2.696.885-3.138 1.725h-.046v-1.457h-3.182v10.682h3.314v-5.289c0-1.393.264-2.739 1.989-2.739 1.699 0 1.725 1.589 1.725 2.829v5.2z" fill="#8ce1eb" data-original="#fd907e" style="" class=""/><g xmlns="http://www.w3.org/2000/svg" fill="#fc573b"><path d="m8.264 13.318h3.317v10.682h-3.317z" fill="#26c6da" data-original="#fc573b" style="" class=""/><path d="m9.921 8c-1.06 0-1.921.861-1.921 1.921 0 1.061.861 1.939 1.921 1.939s1.921-.878 1.921-1.939c0-1.06-.861-1.921-1.921-1.921z" fill="#26c6da" data-original="#fc573b" style="" class=""/></g></g></svg>
