<svg id="bold" enable-background="new 0 0 32 32" height="512" viewBox="0 0 32 32" width="512" xmlns="http://www.w3.org/2000/svg"><path d="m26 32h-20c-3.314 0-6-2.686-6-6v-20c0-3.314 2.686-6 6-6h20c3.314 0 6 2.686 6 6v20c0 3.314-2.686 6-6 6z" fill="#e3f8fa"/><path d="m18 12.333c-.368 0-.667-.299-.667-.667v-1h-2.667v1c0 .368-.299.667-.667.667s-.667-.299-.667-.667v-1c0-.735.598-1.333 1.333-1.333h2.667c.735 0 1.333.598 1.333 1.333v1c.002.369-.297.667-.665.667z" fill="#8ce1eb"/><path d="m20 16.333v.613c0 .273-.227.5-.5.5s-.5-.227-.5-.5v-.613h-6v.613c0 .273-.227.5-.5.5s-.5-.227-.5-.5v-.613h-4v4.5c0 1.013.82 1.833 1.833 1.833h12.333c1.013 0 1.833-.82 1.833-1.833v-4.5zm2.167-5h-12.334c-1.013 0-1.833.82-1.833 1.834v2.167h4v-.834c0-.273.227-.5.5-.5s.5.227.5.5v.833h6v-.833c0-.273.227-.5.5-.5s.5.227.5.5v.833h4v-2.167c0-1.013-.82-1.833-1.833-1.833z" fill="#26c6da"/></svg>